<svg width="215" height="195" viewBox="0 0 215 195" fill="none" xmlns="http://www.w3.org/2000/svg">
<path d="M115 95H145V145H115V95Z" fill="#007FBC"/>
<path d="M185 30H215V145H185V30Z" fill="#007FBC"/>
<path d="M15 0H50V30H15V0Z" fill="#007FBC"/>
<path d="M145 95H115C115 59.1015 85.8985 30 50 30V0C102.467 0 145 42.5329 145 95Z" fill="#007FBC"/>
<path d="M30 15C30 23.2843 23.2843 30 15 30C6.71573 30 0 23.2843 0 15C0 6.71573 6.71573 0 15 0C23.2843 0 30 6.71573 30 15Z" fill="#007FBC"/>
<path d="M215 145C215 172.614 192.614 195 165 195C137.386 195 115 172.614 115 145H145C145 156.046 153.954 165 165 165C176.046 165 185 156.046 185 145H215Z" fill="#007FBC"/>
<path fill-rule="evenodd" clip-rule="evenodd" d="M100 95C100 67.3858 77.6142 45 50 45C22.3858 45 0 67.3858 0 95V145C0 172.614 22.3858 195 50 195C77.6142 195 100 172.614 100 145V95ZM36 120C44.8366 120 52 112.837 52 104C52 95.1634 44.8366 88 36 88C27.1634 88 20 95.1634 20 104C20 112.837 27.1634 120 36 120Z" fill="#007FBC"/>
<path fill-rule="evenodd" clip-rule="evenodd" d="M165 60H185C201.569 60 215 46.5685 215 30C215 13.4315 201.569 0 185 0H165C148.431 0 135 13.4315 135 30C135 46.5685 148.431 60 165 60ZM164.5 38C171.404 38 177 32.4036 177 25.5C177 18.5964 171.404 13 164.5 13C157.596 13 152 18.5964 152 25.5C152 32.4036 157.596 38 164.5 38Z" fill="#007FBC"/>
</svg>
