<svg width="20" height="20" viewBox="0 0 20 20" fill="none" xmlns="http://www.w3.org/2000/svg">
<g clip-path="url(#clip0)">
<path d="M12.2031 7.79535C11.9648 7.55711 11.7031 7.34622 11.418 7.16657C10.668 6.68619 9.79297 6.42843 8.90234 6.42843C7.66406 6.42452 6.47656 6.91661 5.60156 7.79535L1.36328 12.0367C0.492188 12.9115 0 14.0949 0 15.329C0 17.9066 2.08594 19.9961 4.66406 19.9961C5.89844 20 7.08594 19.5118 7.96094 18.637L11.4609 15.1377C11.5234 15.0752 11.5586 14.9893 11.5586 14.8994C11.5586 14.7159 11.4062 14.5675 11.2227 14.5675H11.0898C10.3594 14.5714 9.63281 14.4308 8.95703 14.1535C8.83203 14.1027 8.6875 14.13 8.59375 14.2277L6.07812 16.7467C5.29688 17.5278 4.03125 17.5278 3.25 16.7467C2.46875 15.9656 2.46875 14.7002 3.25 13.9191L7.50781 9.66607C8.28906 8.88498 9.55469 8.88498 10.3359 9.66607C10.8633 10.1621 11.6836 10.1621 12.2109 9.66607C12.4375 9.43956 12.5742 9.13883 12.5977 8.81858C12.6133 8.43975 12.4727 8.06483 12.2031 7.79535Z" fill="black"/>
<path d="M18.6328 1.36692C16.8085 -0.456942 13.8554 -0.456942 12.0312 1.36692L8.53512 4.85843C8.43746 4.95606 8.41012 5.10057 8.4648 5.22554C8.51949 5.35052 8.64058 5.43253 8.7773 5.42863H8.9023C9.63277 5.42863 10.3554 5.56922 11.0312 5.84651C11.1562 5.89729 11.3007 5.86995 11.3945 5.77231L13.9062 3.26499C14.6875 2.48389 15.9531 2.48389 16.7343 3.26499C17.5156 4.04609 17.5156 5.31146 16.7343 6.09256L13.6093 9.21695L13.582 9.24819L12.4882 10.3339C11.707 11.115 10.4414 11.115 9.66012 10.3339C9.13277 9.83792 8.31246 9.83792 7.78512 10.3339C7.55855 10.5604 7.41793 10.8651 7.3984 11.1853C7.37496 11.5681 7.51559 11.9391 7.78512 12.2125C8.17184 12.5991 8.62105 12.9154 9.11715 13.1459C9.18746 13.181 9.25777 13.2045 9.32808 13.2357C9.3984 13.2669 9.47262 13.2904 9.54293 13.3138C9.61324 13.3411 9.68746 13.3646 9.75777 13.3841L9.95308 13.4388C10.0859 13.4739 10.2187 13.4974 10.3554 13.5208C10.5195 13.5442 10.6875 13.5599 10.8515 13.5677H11.0859H11.1054L11.3046 13.5442C11.3789 13.5403 11.4531 13.5247 11.5429 13.5247H11.6562L11.8867 13.4896L11.9921 13.47L12.1835 13.431H12.2187C13.039 13.224 13.7851 12.8022 14.3828 12.2046L18.6328 7.96719C20.457 6.14333 20.457 3.18688 18.6328 1.36692Z" fill="black"/>
</g>
<defs>
<clipPath id="clip0">
<rect width="20" height="20" fill="white"/>
</clipPath>
</defs>
</svg>
