<svg width="20" height="16" viewBox="0 0 20 16" fill="none" xmlns="http://www.w3.org/2000/svg">
<path d="M0 14.1875C1.81587 15.3313 3.9746 16 6.29206 16C13.8413 16 17.9683 9.84375 17.9683 4.50625C17.9683 4.33125 17.9619 4.15625 17.9556 3.98125C18.7556 3.4125 19.454 2.7 20 1.8875C19.2635 2.20625 18.4762 2.425 17.6444 2.525C18.4889 2.025 19.1429 1.23125 19.4476 0.2875C18.654 0.75 17.7778 1.0875 16.8444 1.26875C16.0952 0.4875 15.0286 0 13.8476 0C11.581 0 9.74603 1.80625 9.74603 4.0375C9.74603 4.35625 9.78413 4.6625 9.85397 4.95625C6.4381 4.79375 3.41587 3.18125 1.39048 0.7375C1.03492 1.33125 0.831746 2.025 0.831746 2.76875C0.831746 4.16875 1.55556 5.40625 2.66032 6.13125C1.9873 6.1125 1.35238 5.93125 0.8 5.625C0.8 5.64375 0.8 5.65625 0.8 5.675C0.8 7.63125 2.21587 9.2625 4.08889 9.6375C3.74603 9.73125 3.38413 9.78125 3.00952 9.78125C2.74286 9.78125 2.48889 9.75625 2.23492 9.70625C2.75556 11.3125 4.27302 12.4812 6.06984 12.5125C4.66667 13.5938 2.89524 14.2437 0.971429 14.2437C0.647619 14.2437 0.32381 14.225 0 14.1875Z" fill="black"/>
</svg>
