<svg  width="20" height="18" viewBox="0 0 95 95" fill="none" xmlns="http://www.w3.org/2000/svg">
<path d="M47.5 0C21.2683 0 0 21.2683 0 47.5C0 68.49 13.6088 86.2909 32.4852 92.5705C34.8596 93.0054 35.7265 91.5384 35.7265 90.2859C35.7265 89.1552 35.683 85.4096 35.6598 81.4435C22.4512 84.3136 19.6592 75.8423 19.6592 75.8423C17.4965 70.3571 14.3856 68.8959 14.3856 68.8959C10.0688 65.9503 14.7131 66.0083 14.7131 66.0083C19.4822 66.3388 21.9931 70.9021 21.9931 70.9021C26.2317 78.1616 33.1143 76.0626 35.8163 74.845C36.2481 71.7835 37.4773 69.6845 38.8314 68.5016C28.2872 67.3014 17.195 63.2251 17.195 45.0241C17.195 39.8345 19.0476 35.6018 22.0801 32.2764C21.5959 31.0704 19.9608 26.2374 22.5497 19.6999C22.5497 19.6999 26.5332 18.4242 35.6133 24.5705C39.3996 23.5123 43.4614 22.9905 47.4999 22.973C51.5356 22.9905 55.6001 23.5181 59.3923 24.5762C68.4552 18.4243 72.4445 19.7056 72.4445 19.7056C75.0421 26.249 73.407 31.0761 72.9199 32.2764C75.964 35.6018 77.8021 39.8346 77.8021 45.0241C77.8021 63.2715 66.6925 67.2897 56.1106 68.4668C57.8211 69.9396 59.3345 72.8272 59.3345 77.2571C59.3345 83.6063 59.2706 88.7262 59.2706 90.2918C59.2706 91.5558 60.1345 93.0343 62.5409 92.5705C81.4029 86.2793 95 68.4784 95 47.5C95 21.2683 73.7317 0 47.5 0Z" fill="black"/>
</svg>
