<svg width="95" height="95" viewBox="0 0 95 95" fill="none" xmlns="http://www.w3.org/2000/svg">
<rect width="95" height="95" rx="7" fill="#010101"/>
<path d="M47 31.875C38.25 31.875 31 39 31 47.875C31 56.75 38.125 63.875 47 63.875C55.875 63.875 63 56.625 63 47.875C63 39.125 55.75 31.875 47 31.875ZM47 58.125C41.375 58.125 36.75 53.5 36.75 47.875C36.75 42.25 41.375 37.625 47 37.625C52.625 37.625 57.25 42.25 57.25 47.875C57.25 53.5 52.625 58.125 47 58.125Z" fill="white"/>
<path d="M63.625 35.125C65.627 35.125 67.25 33.502 67.25 31.5C67.25 29.498 65.627 27.875 63.625 27.875C61.623 27.875 60 29.498 60 31.5C60 33.502 61.623 35.125 63.625 35.125Z" fill="white"/>
<path d="M73 22.125C69.75 18.75 65.125 17 59.875 17H34.125C23.25 17 16 24.25 16 35.125V60.75C16 66.125 17.75 70.75 21.25 74.125C24.625 77.375 29.125 79 34.25 79H59.75C65.125 79 69.625 77.25 72.875 74.125C76.25 70.875 78 66.25 78 60.875V35.125C78 29.875 76.25 25.375 73 22.125ZM72.5 60.875C72.5 64.75 71.125 67.875 68.875 70C66.625 72.125 63.5 73.25 59.75 73.25H34.25C30.5 73.25 27.375 72.125 25.125 70C22.875 67.75 21.75 64.625 21.75 60.75V35.125C21.75 31.375 22.875 28.25 25.125 26C27.25 23.875 30.5 22.75 34.25 22.75H60C63.75 22.75 66.875 23.875 69.125 26.125C71.25 28.375 72.5 31.5 72.5 35.125V60.875Z" fill="white"/>
</svg>
