<svg width="20" height="18" viewBox="0 0 20 18" fill="none" xmlns="http://www.w3.org/2000/svg">
<path d="M0.253906 5.85449H4.53962V18H0.253906V5.85449Z" fill="black"/>
<path d="M2.36825 4.19801H2.39365C3.89206 4.19801 4.8254 3.26512 4.8254 2.099C4.79365 0.90897 3.89206 0 2.4254 0C0.95873 0 0 0.90897 0 2.099C0 3.26512 0.933333 4.19801 2.36825 4.19801Z" fill="black"/>
<path d="M11.2 18V11.2186C11.2 10.8538 11.2318 10.495 11.3397 10.2319C11.6508 9.50831 12.3556 8.75482 13.5365 8.75482C15.0857 8.75482 15.708 9.86711 15.708 11.4997V18H20V11.0332C20 7.30166 17.8857 5.56744 15.0667 5.56744C12.7873 5.56744 11.7715 6.74552 11.2 7.57077V7.61263H11.1746C11.181 7.60067 11.1937 7.58871 11.2 7.57077V5.85449H6.91431C6.97145 6.99668 6.91431 18 6.91431 18H11.2Z" fill="black"/>
</svg>
