<svg width="541" height="457" viewBox="0 0 541 457" fill="none" xmlns="http://www.w3.org/2000/svg">
  <path d="M421.195 437.833H420.785L56.551 435.427C41.527 435.318 27.1542 429.238 16.5624 418.511C5.97062 407.784 0.0177481 393.279 0.00012207 378.154L2.11736 56.9293C2.20758 41.7992 8.24138 27.3197 18.901 16.6532C29.5606 5.98663 43.9799 -0.000272558 59.0097 9.30654e-09L59.4195 9.30655e-09L423.449 2.40643C438.538 2.5336 452.962 8.67607 463.562 19.4884C474.161 30.3006 480.072 44.9013 479.999 60.0921L478.087 380.904C477.979 396.028 471.939 410.497 461.284 421.16C450.628 431.823 436.219 437.815 421.195 437.833V437.833ZM68.2983 366.74L409.789 369.009L411.77 71.0929L70.3472 68.7552L68.2983 366.74Z" fill="white"/>
  <path d="M35.9266 103.133L34.1508 378.153C34.1328 381.16 34.7033 384.141 35.8296 386.926C36.956 389.71 38.6162 392.245 40.7154 394.383C42.8147 396.522 45.3118 398.224 48.0643 399.391C50.8168 400.558 53.7708 401.168 56.7575 401.186L420.991 403.593C423.993 403.611 426.968 403.033 429.747 401.891C432.526 400.749 435.054 399.067 437.186 396.94C439.318 394.813 441.012 392.283 442.171 389.496C443.33 386.709 443.931 383.719 443.94 380.697L445.715 105.677L35.9266 103.133Z" fill="#FF7698"/>
  <path d="M421.194 405.175L56.7553 402.768C50.2943 402.732 44.1102 400.123 39.5543 395.51C34.9984 390.898 32.4411 384.658 32.4412 378.154L34.1486 103.133C34.1486 102.677 34.3285 102.24 34.6487 101.918C34.9689 101.595 35.4032 101.414 35.8561 101.414L445.645 104.096C446.098 104.096 446.532 104.277 446.852 104.599C447.172 104.921 447.352 105.359 447.352 105.814L445.577 380.835C445.487 387.298 442.883 393.468 438.324 398.019C433.765 402.57 427.615 405.139 421.194 405.175ZM37.6318 104.714L35.8561 378.154C35.8381 380.935 36.3644 383.692 37.4049 386.268C38.4455 388.845 39.9799 391.189 41.9206 393.168C43.8613 395.148 46.1702 396.723 48.7156 397.803C51.2609 398.884 53.9928 399.45 56.7553 399.468L421.058 401.874C426.613 401.875 431.943 399.662 435.884 395.721C439.825 391.779 442.057 386.428 442.093 380.835L443.937 107.396L37.6318 104.714Z" fill="#3D3DFF"/>
  <path d="M446.056 59.8858C446.083 56.8733 445.519 53.8851 444.397 51.0925C443.274 48.2998 441.616 45.7575 439.515 43.6114C437.415 41.4653 434.915 39.7575 432.158 38.5859C429.401 37.4143 426.442 36.802 423.449 36.784L59.1468 34.3776C56.1601 34.3595 53.1991 34.9338 50.4329 36.0677C47.6667 37.2016 45.1494 38.8729 43.0248 40.9862C40.9002 43.0995 39.2099 45.6133 38.0504 48.3843C36.8909 51.1552 36.2849 54.1289 36.267 57.1356L36.267 102.995L446.056 105.677L446.056 59.8858Z" fill="#F2F2F2"/>
  <path d="M445.715 107.396L35.9261 104.714C35.4844 104.733 35.0524 104.579 34.7212 104.284C34.39 103.989 34.1854 103.577 34.1504 103.133L34.1504 57.2731C34.1499 54.0057 34.7957 50.7709 36.05 47.7573C37.3043 44.7438 39.1421 42.0118 41.4561 39.7206C43.7702 37.4295 46.5142 35.6251 49.5281 34.4126C52.5421 33.2002 55.7657 32.604 59.0109 32.6587V32.6587L423.45 35.0652C429.935 35.1377 436.129 37.7869 440.683 42.4358C445.237 47.0847 447.782 53.3567 447.764 59.8858L447.764 105.677C447.769 105.935 447.717 106.19 447.61 106.425C447.504 106.659 447.347 106.867 447.15 107.032C446.953 107.197 446.722 107.316 446.474 107.378C446.225 107.441 445.966 107.447 445.715 107.396V107.396ZM37.6336 101.276L444.007 103.958L444.007 59.817C444.027 54.2645 441.887 48.9249 438.045 44.9413C434.202 40.9577 428.963 38.6466 423.45 38.5029L59.1475 36.0965C56.385 36.0784 53.6461 36.6082 51.087 37.6557C48.5279 38.7032 46.1988 40.2479 44.2328 42.2016C42.2667 44.1553 40.7022 46.4797 39.6285 49.042C38.5548 51.6044 37.993 54.3546 37.9751 57.1356L37.6336 101.276Z" fill="#3D3DFF"/>
  <path d="M70.3458 80.3063C76.6451 80.3063 81.7516 75.1656 81.7516 68.8242C81.7516 62.4828 76.6451 57.342 70.3458 57.342C64.0466 57.342 58.9401 62.4828 58.9401 68.8242C58.9401 75.1656 64.0466 80.3063 70.3458 80.3063Z" fill="#FF6777"/>
  <path d="M70.3441 82.0251C66.8888 81.9401 63.5941 80.5396 61.1238 78.106C58.6479 75.6307 57.2479 72.2681 57.2308 68.7553C57.2667 65.2717 58.6619 61.942 61.1153 59.485C63.5687 57.0281 66.8835 55.6409 70.3441 55.623C73.7983 55.6411 77.1059 57.0305 79.5485 59.4894C81.991 61.9482 83.3711 65.278 83.3891 68.7553V68.7553C83.4036 70.4982 83.066 72.2258 82.3968 73.8333C81.7276 75.4407 80.7407 76.8944 79.4961 78.106C77.0708 80.5652 73.7861 81.9718 70.3441 82.0251ZM70.3441 59.0608C67.7888 59.0649 65.3369 60.0769 63.5143 61.8798C61.7125 63.7084 60.7015 66.1797 60.7015 68.7553C60.7015 71.3309 61.7125 73.8022 63.5143 75.6308C64.4092 76.5372 65.4734 77.2565 66.6455 77.7473C67.8177 78.2381 69.0746 78.4908 70.3441 78.4908C71.6136 78.4908 72.8706 78.2381 74.0427 77.7473C75.2148 77.2565 76.279 76.5372 77.1739 75.6308C78.0823 74.7345 78.8039 73.6647 79.2965 72.4841C79.789 71.3035 80.0426 70.0358 80.0425 68.7553C80.0755 67.4763 79.8436 66.2045 79.3615 65.0207C78.8793 63.837 78.1576 62.7673 77.2422 61.8798C75.4418 60.0264 72.9872 58.9639 70.4124 58.9233L70.3441 59.0608Z" fill="#3D3DFF"/>
  <path d="M115.836 80.5812C122.136 80.5812 127.242 75.4405 127.242 69.0991C127.242 62.7577 122.136 57.6169 115.836 57.6169C109.537 57.6169 104.43 62.7577 104.43 69.0991C104.43 75.4405 109.537 80.5812 115.836 80.5812Z" fill="#00FFAC"/>
  <path d="M116.108 82.5063C114.319 82.5461 112.541 82.2149 110.885 81.5334C109.229 80.8519 107.729 79.8346 106.48 78.5449C105.231 77.2552 104.259 75.7205 103.624 74.0363C102.989 72.3522 102.705 70.5546 102.79 68.7553C102.879 65.2842 104.331 61.9901 106.827 59.5935C109.323 57.1969 112.66 55.893 116.108 55.9668V55.9668C119.604 55.9668 122.957 57.3649 125.429 59.8535C127.901 62.342 129.29 65.7172 129.29 69.2366C129.29 72.7559 127.901 76.1311 125.429 78.6197C122.957 81.1083 119.604 82.5063 116.108 82.5063ZM116.108 59.6109C113.604 59.5526 111.174 60.472 109.328 62.1765C107.482 63.8811 106.363 66.2386 106.205 68.7553C106.138 70.0887 106.347 71.4217 106.819 72.6694C107.291 73.9171 108.016 75.0523 108.947 76.0028C109.878 76.9533 110.996 77.6984 112.229 78.1907C113.462 78.683 114.783 78.9117 116.108 78.8623V78.8623C118.668 78.8624 121.125 77.8432 122.942 76.0271C124.759 74.211 125.788 71.7453 125.806 69.1678V69.1678C125.806 67.8857 125.556 66.6161 125.068 65.4316C124.581 64.2471 123.866 63.1708 122.966 62.2642C122.065 61.3576 120.996 60.6384 119.819 60.1478C118.643 59.6571 117.382 59.4046 116.108 59.4046L116.108 59.6109Z" fill="#3D3DFF"/>
  <path d="M161.388 80.9249C167.687 80.9249 172.794 75.7842 172.794 69.4428C172.794 63.1014 167.687 57.9607 161.388 57.9607C155.089 57.9607 149.982 63.1014 149.982 69.4428C149.982 75.7842 155.089 80.9249 161.388 80.9249Z" fill="#00CDFF"/>
  <path d="M161.387 82.5063C159.654 82.4925 157.94 82.133 156.346 81.4485C154.752 80.764 153.308 79.7681 152.098 78.5185C150.893 77.2987 149.94 75.8501 149.295 74.2567C148.651 72.6634 148.327 70.9569 148.342 69.2365C148.36 65.7473 149.75 62.4072 152.207 59.9464C154.664 57.4856 157.989 56.1042 161.455 56.1042V56.1042C164.933 56.1042 168.268 57.4951 170.728 59.9707C173.187 62.4464 174.568 65.8041 174.568 69.3053C174.568 72.8064 173.187 76.1641 170.728 78.6398C168.268 81.1154 164.933 82.5063 161.455 82.5063L161.387 82.5063ZM161.387 59.542C158.827 59.5419 156.37 60.5611 154.553 62.3772C152.736 64.1934 151.707 66.6591 151.689 69.2365C151.676 70.5127 151.917 71.7786 152.398 72.9595C152.879 74.1403 153.59 75.2123 154.489 76.112C156.298 77.953 158.747 79.0133 161.319 79.0685V79.0685C163.879 79.0686 166.336 78.0494 168.152 76.2333C169.969 74.4171 170.999 71.9514 171.017 69.374V69.374C170.992 66.8059 169.989 64.3453 168.217 62.4985C167.326 61.584 166.264 60.8576 165.091 60.3617C163.918 59.8659 162.659 59.6106 161.387 59.6108V59.542Z" fill="#3D3DFF"/>
  <path d="M423.45 84.3627C422.986 84.3417 422.547 84.1453 422.221 83.8126L399.273 60.7796C398.956 60.4514 398.781 60.0099 398.788 59.5521C398.794 59.0944 398.981 58.6579 399.307 58.3388C399.633 58.0197 400.071 57.8441 400.526 57.8505C400.981 57.857 401.414 58.045 401.731 58.3732L424.338 81.4062C424.651 81.7275 424.826 82.1595 424.826 82.6094C424.826 83.0593 424.651 83.4913 424.338 83.8126C424.101 84.0781 423.793 84.2691 423.45 84.3627V84.3627Z" fill="#3D3DFF"/>
  <path d="M400.365 84.2252C400.133 84.2221 399.905 84.1717 399.694 84.0772C399.483 83.9826 399.292 83.8459 399.135 83.6751C398.972 83.5208 398.842 83.3344 398.753 83.1275C398.664 82.9205 398.618 82.6974 398.618 82.4719C398.618 82.2464 398.664 82.0233 398.753 81.8164C398.842 81.6094 398.972 81.423 399.135 81.2687L422.083 58.5108C422.412 58.2625 422.819 58.142 423.229 58.1713C423.639 58.2006 424.025 58.3779 424.315 58.6704C424.606 58.963 424.782 59.3513 424.811 59.764C424.84 60.1767 424.72 60.5862 424.474 60.9172L401.526 83.6751C401.224 84.0035 400.808 84.2008 400.365 84.2252V84.2252Z" fill="#3D3DFF"/>
  <path d="M377.759 61.1236L195.608 59.886C195.155 59.886 194.721 59.7049 194.4 59.3825C194.08 59.0602 193.9 58.623 193.9 58.1671C193.9 57.7112 194.08 57.274 194.4 56.9517C194.721 56.6293 195.155 56.4482 195.608 56.4482L377.759 57.6858C378.212 57.6858 378.646 57.8669 378.966 58.1893C379.287 58.5116 379.466 58.9488 379.466 59.4047C379.45 59.8551 379.264 60.2825 378.948 60.6013C378.631 60.92 378.206 61.1066 377.759 61.1236V61.1236Z" fill="#3D3DFF"/>
  <path d="M377.554 84.0187L195.471 82.8499C195.018 82.8499 194.584 82.6688 194.263 82.3464C193.943 82.0241 193.763 81.5869 193.763 81.131C193.763 80.6751 193.943 80.2379 194.263 79.9156C194.584 79.5932 195.018 79.4121 195.471 79.4121L377.622 80.5809C378.063 80.5987 378.48 80.7876 378.785 81.1081C379.091 81.4285 379.261 81.8556 379.261 82.2998C379.261 82.7557 379.081 83.1929 378.761 83.5152C378.441 83.8376 378.006 84.0187 377.554 84.0187Z" fill="#3D3DFF"/>
  <path d="M523.732 379.315L485.885 386.55L508.924 417.483L474.079 400.986L474.619 439.627L456.066 405.752L433.871 437.294L438.728 398.991L402.264 411.432L428.642 383.305L391.841 371.844L429.688 364.643L406.649 333.71L441.494 350.174L440.954 311.567L459.473 345.441L481.702 313.866L476.845 352.169L513.309 339.762L486.931 367.889L523.732 379.315Z" fill="white"/>
  <path d="M474.618 456.496C471.593 456.502 468.623 455.692 466.017 454.152C463.412 452.611 461.268 450.397 459.81 447.74L454.278 437.598L447.532 447.03C445.334 450.031 442.21 452.22 438.643 453.259C435.077 454.298 431.268 454.128 427.808 452.775C424.348 451.423 421.43 448.964 419.508 445.779C417.585 442.595 416.764 438.864 417.173 435.164L418.624 423.704L407.695 427.423C404.131 428.635 400.266 428.619 396.713 427.376C393.16 426.133 390.124 423.735 388.088 420.563C386.051 417.391 385.132 413.628 385.476 409.872C385.82 406.116 387.408 402.584 389.986 399.836L397.879 391.418L386.882 388.038C383.284 386.922 380.162 384.632 378.014 381.532C375.865 378.432 374.814 374.7 375.027 370.931C375.241 367.162 376.706 363.574 379.191 360.737C381.676 357.9 385.037 355.979 388.738 355.279L400.071 353.115L393.325 343.852C391.07 340.846 389.88 337.173 389.942 333.413C390.004 329.653 391.316 326.021 393.67 323.092C396.023 320.163 399.284 318.104 402.936 317.241C406.588 316.378 410.423 316.761 413.834 318.328L424.257 323.23V311.702C424.301 307.998 425.558 304.412 427.834 301.493C430.11 298.575 433.279 296.487 436.854 295.55C440.43 294.613 444.213 294.879 447.623 296.306C451.033 297.734 453.881 300.245 455.729 303.453L461.294 313.595L468.041 304.163C470.24 301.158 473.367 298.966 476.938 297.927C480.508 296.888 484.321 297.061 487.784 298.418C491.246 299.775 494.164 302.241 496.084 305.432C498.004 308.623 498.818 312.36 498.399 316.063L496.982 327.456L507.878 323.737C511.441 322.524 515.307 322.541 518.86 323.784C522.413 325.027 525.449 327.425 527.485 330.597C529.521 333.769 530.44 337.532 530.096 341.288C529.752 345.043 528.165 348.576 525.587 351.323L517.694 359.741L528.724 363.122C532.423 364.171 535.654 366.454 537.882 369.595C540.109 372.736 541.199 376.545 540.97 380.391C540.742 384.238 539.209 387.89 536.626 390.744C534.043 393.598 530.565 395.482 526.767 396.084L515.434 398.213L522.18 407.477C524.443 410.498 525.631 414.192 525.554 417.969C525.477 421.746 524.14 425.389 521.756 428.315C519.372 431.241 516.078 433.283 512.401 434.114C508.724 434.945 504.875 434.517 501.469 432.899L491.046 427.963V439.525C491.072 441.762 490.656 443.982 489.82 446.056C488.985 448.131 487.747 450.018 486.178 451.609C484.609 453.2 482.741 454.464 480.681 455.326C478.622 456.188 476.412 456.632 474.18 456.632L474.618 456.496ZM456.066 388.883H457.044C458.56 388.958 460.058 389.243 461.497 389.728C462.495 388.611 463.628 387.623 464.87 386.787C466.16 385.961 467.556 385.313 469.019 384.86C469.178 383.331 469.541 381.83 470.098 380.397C470.654 378.978 471.391 377.637 472.291 376.408C471.52 375.089 470.941 373.666 470.57 372.182C470.179 370.705 469.986 369.181 469.997 367.652C468.594 367.041 467.278 366.245 466.084 365.286C464.905 364.312 463.871 363.173 463.015 361.905C461.523 362.249 459.989 362.374 458.461 362.277C456.943 362.193 455.444 361.898 454.008 361.398C453.017 362.532 451.883 363.532 450.635 364.373C449.344 365.198 447.949 365.846 446.486 366.3C446.335 367.816 445.983 369.305 445.44 370.729C444.882 372.153 444.133 373.495 443.214 374.718C443.984 376.042 444.574 377.463 444.968 378.944C445.366 380.42 445.547 381.945 445.508 383.474C446.92 384.082 448.238 384.89 449.421 385.874C450.621 386.873 451.676 388.033 452.558 389.322C453.665 389.059 454.794 388.9 455.931 388.849L456.066 388.883Z" fill="white"/>
  <path d="M523.732 379.315L485.885 386.55L508.924 417.483L474.079 400.986L474.619 439.627L456.066 405.752L433.871 437.294L438.728 398.991L402.264 411.432L428.642 383.305L391.841 371.844L429.688 364.643L406.649 333.71L441.494 350.174L440.954 311.567L459.473 345.441L481.702 313.866L476.845 352.169L513.309 339.762L486.931 367.889L523.732 379.315Z" fill="#FFFF58"/>
  <path d="M474.618 440.438C474.465 440.447 474.313 440.409 474.181 440.331C474.049 440.253 473.943 440.137 473.876 439.999L455.931 407.341L434.478 437.767C434.364 437.92 434.202 438.03 434.019 438.079C433.835 438.128 433.64 438.114 433.466 438.038C433.294 437.971 433.151 437.847 433.059 437.687C432.967 437.528 432.932 437.341 432.96 437.159L437.716 400.242L402.534 412.209C402.357 412.276 402.162 412.279 401.984 412.218C401.805 412.156 401.654 412.033 401.556 411.871C401.435 411.73 401.368 411.55 401.368 411.364C401.368 411.178 401.435 410.998 401.556 410.857L427.023 383.812L391.605 372.656C391.43 372.604 391.276 372.498 391.166 372.351C391.057 372.205 390.998 372.027 390.998 371.844C390.998 371.661 391.057 371.483 391.166 371.337C391.276 371.191 391.43 371.084 391.605 371.033L428.136 364.069L405.974 334.217C405.862 334.066 405.802 333.882 405.802 333.693C405.802 333.504 405.862 333.321 405.974 333.169C406.093 333.022 406.256 332.919 406.44 332.876C406.623 332.833 406.816 332.853 406.986 332.933L440.718 348.822L440.111 311.567C440.107 311.378 440.168 311.193 440.285 311.045C440.402 310.897 440.567 310.795 440.752 310.755C440.932 310.709 441.122 310.724 441.293 310.797C441.464 310.871 441.605 310.999 441.696 311.161L459.574 343.852L481.027 313.426C481.134 313.275 481.288 313.163 481.465 313.108C481.642 313.053 481.832 313.058 482.005 313.122C482.186 313.189 482.338 313.317 482.436 313.483C482.534 313.649 482.573 313.844 482.545 314.035L477.856 350.952L513.039 338.95C513.216 338.89 513.408 338.89 513.585 338.951C513.763 339.012 513.914 339.131 514.017 339.288C514.129 339.44 514.19 339.624 514.19 339.812C514.19 340.001 514.129 340.185 514.017 340.336L488.583 367.382L523.968 378.504C524.148 378.568 524.304 378.687 524.413 378.845C524.522 379.003 524.579 379.191 524.575 379.383C524.562 379.574 524.485 379.755 524.356 379.896C524.227 380.037 524.055 380.13 523.866 380.161L487.369 387.125L509.598 416.976C509.719 417.117 509.786 417.297 509.786 417.483C509.786 417.669 509.719 417.849 509.598 417.99C509.49 418.14 509.332 418.246 509.152 418.289C508.973 418.333 508.784 418.311 508.62 418.227L474.888 402.338L475.394 439.525C475.394 439.717 475.331 439.903 475.215 440.056C475.1 440.208 474.937 440.319 474.753 440.371L474.618 440.438ZM455.931 404.907C456.073 404.912 456.211 404.955 456.33 405.032C456.449 405.11 456.544 405.219 456.606 405.347L473.471 436.212L472.999 401.019C472.995 400.871 473.031 400.724 473.102 400.593C473.173 400.462 473.277 400.353 473.404 400.276C473.528 400.208 473.667 400.172 473.809 400.172C473.95 400.172 474.089 400.208 474.213 400.276L505.989 415.286L484.974 387.091C484.899 386.969 484.86 386.829 484.86 386.685C484.86 386.542 484.899 386.402 484.974 386.28C485.024 386.147 485.105 386.029 485.211 385.935C485.317 385.84 485.444 385.773 485.581 385.739L520.257 379.18L486.526 368.768C486.384 368.728 486.255 368.651 486.154 368.543C486.053 368.436 485.983 368.303 485.952 368.159C485.916 368.023 485.915 367.88 485.95 367.744C485.986 367.607 486.056 367.483 486.154 367.382L510.205 341.722L476.946 353.048C476.821 353.113 476.682 353.147 476.541 353.147C476.4 353.147 476.261 353.113 476.136 353.048C476.054 352.908 476.013 352.748 476.019 352.586C476.025 352.424 476.078 352.268 476.17 352.135L480.454 317.145L460.215 345.914C460.128 346.029 460.015 346.122 459.887 346.186C459.758 346.251 459.617 346.285 459.473 346.286C459.33 346.268 459.194 346.219 459.071 346.143C458.949 346.067 458.845 345.966 458.764 345.847L441.831 314.947L442.438 350.174C442.436 350.317 442.398 350.457 442.327 350.581C442.256 350.705 442.155 350.81 442.034 350.884C441.909 350.949 441.77 350.983 441.629 350.983C441.488 350.983 441.349 350.949 441.224 350.884L409.348 335.908L430.362 364.136C430.427 364.262 430.461 364.401 430.461 364.542C430.461 364.683 430.427 364.822 430.362 364.948C430.313 365.083 430.227 365.203 430.114 365.292C430.001 365.382 429.865 365.438 429.721 365.455L395.214 372.047L428.946 382.561C429.083 382.598 429.209 382.67 429.309 382.771C429.41 382.872 429.482 382.998 429.519 383.136C429.555 383.277 429.556 383.425 429.52 383.567C429.485 383.709 429.415 383.839 429.317 383.947L405.334 409.606L438.627 398.247C438.765 398.207 438.911 398.201 439.053 398.23C439.194 398.26 439.326 398.324 439.436 398.416C439.547 398.503 439.633 398.617 439.686 398.748C439.74 398.878 439.758 399.02 439.74 399.16L435.119 434.049L455.358 405.245C455.497 405.061 455.703 404.94 455.931 404.907V404.907Z" fill="#0000FF"/>
  <g clip-path="url(#clip0)">
  <path d="M239.89 235.19C236.407 235.19 233.002 236.223 230.106 238.158C227.21 240.093 224.953 242.843 223.621 246.061C222.288 249.279 221.939 252.82 222.618 256.236C223.298 259.652 224.975 262.79 227.438 265.252C229.901 267.715 233.038 269.392 236.454 270.072C239.871 270.751 243.411 270.403 246.629 269.07C249.847 267.737 252.597 265.48 254.532 262.584C256.467 259.688 257.5 256.283 257.5 252.8C257.5 248.13 255.645 243.651 252.342 240.348C249.04 237.046 244.561 235.19 239.89 235.19Z" fill="white"/>
  <path d="M303.19 222.78C300.943 222.007 298.61 221.28 296.19 220.6C296.61 218.92 297 217.26 297.34 215.6C302.19 192.2 298.85 174 288.64 168.1C278.96 162.52 262.38 168.25 245.36 183.1C243.57 184.66 241.77 186.32 239.98 188.1C238.73 186.89 237.48 185.72 236.24 184.62C218.35 168.65 200.89 162.45 190.7 168.35C181 174 177.71 191.18 182 213.32C182.46 215.66 183 218.05 183.62 220.49C180.88 221.25 178.23 222.07 175.69 222.95C154.61 230.31 142 241.47 142 252.8C142 264.38 156 276.65 177.58 284C179.49 284.66 181.48 285.27 183.58 285.85C182.92 288.46 182.34 291.03 181.87 293.53C177.7 315.53 181.07 332.01 190.87 337.67C193.626 339.176 196.73 339.928 199.87 339.85C209.87 339.85 222.87 333.67 235.74 322.45C237.26 321.117 238.79 319.7 240.33 318.2C242.26 320.07 244.19 321.85 246.11 323.51C258.6 334.25 270.56 339.97 279.91 339.97C283.031 340.035 286.113 339.268 288.84 337.75C298.84 331.94 302.49 313.75 298.06 291.31C297.68 289.38 297.22 287.41 296.71 285.39C298.18 284.97 299.62 284.53 301.01 284.07C323.73 276.55 337.84 264.55 337.84 252.77C337.77 241.62 324.52 230.12 303.19 222.78ZM250 188.34C262.54 177.38 273.16 173 280 173C281.793 172.94 283.571 173.347 285.16 174.18C291.22 177.68 295.23 191.42 290.52 214.25C290.21 215.76 289.85 217.3 289.46 218.87C280.474 216.798 271.356 215.347 262.17 214.53C256.913 206.961 251.135 199.767 244.88 193C246.57 191.37 248.27 189.81 250 188.34ZM268 269.21C264.827 274.703 261.61 279.893 258.35 284.78C252.35 285.22 246.18 285.45 239.87 285.45C233.56 285.45 227.48 285.25 221.64 284.87C218.2 279.87 214.87 274.63 211.76 269.25C208.65 263.87 205.8 258.43 203.2 253C205.81 247.55 208.67 242.09 211.75 236.74C214.86 231.36 218.14 226.16 221.53 221.21C227.53 220.74 233.71 220.49 239.89 220.49C246.07 220.49 252.27 220.74 258.26 221.2C261.6 226.11 264.87 231.29 267.99 236.7C271.11 242.11 274.07 247.59 276.67 252.86C274.06 258.27 271.17 263.75 268 269.21ZM280.47 261C283.359 267.333 285.874 273.831 288 280.46C281.173 282.02 274.261 283.185 267.3 283.95C269.6 280.35 271.873 276.603 274.12 272.71C276.367 268.817 278.483 264.913 280.47 261ZM240.24 308.19C235.505 303.104 231.051 297.763 226.9 292.19C231.12 292.377 235.453 292.473 239.9 292.48C244.42 292.48 248.9 292.36 253.28 292.14C249.245 297.736 244.891 303.095 240.24 308.19V308.19ZM212.7 284.11C205.816 283.421 198.978 282.332 192.22 280.85C194.282 274.194 196.702 267.655 199.47 261.26C201.47 265.1 203.47 268.94 205.72 272.75C207.97 276.56 210.3 280.43 212.7 284.11ZM205.7 233.26C203.5 237.07 201.41 240.92 199.46 244.76C196.736 238.486 194.363 232.067 192.35 225.53C199.008 224.033 205.741 222.888 212.52 222.1C210.173 225.72 207.897 229.44 205.69 233.26H205.7ZM240 198C244.646 203.034 249.01 208.322 253.07 213.84C248.73 213.607 244.343 213.49 239.91 213.49C235.5 213.49 231.13 213.6 226.83 213.83C230.922 208.312 235.319 203.027 240 198V198ZM274.05 233.2C271.85 229.39 269.57 225.68 267.25 222.09C274.075 222.886 280.852 224.055 287.55 225.59C285.532 232.107 283.145 238.504 280.4 244.75C278.42 240.95 276.303 237.1 274.05 233.2ZM188.91 212C184.72 190.59 188.55 177.71 194.2 174.44C200.2 170.94 214.2 174.33 231.59 189.8C232.75 190.8 233.91 191.92 235.07 193.04C228.788 199.783 222.978 206.95 217.68 214.49C208.513 215.289 199.412 216.716 190.44 218.76C189.86 216.45 189.34 214.19 188.91 212ZM179.84 277.44C158.65 270.17 149 259.57 149 252.8C149 245 160.67 235.62 178 229.56C180.38 228.73 182.89 227.96 185.5 227.24C188.224 236.044 191.549 244.651 195.45 253C191.516 261.472 188.174 270.206 185.45 279.14C183.49 278.59 181.62 278 179.84 277.41V277.44ZM194.33 331.66C187.54 327.74 185.33 312.97 188.71 294.9C189.15 292.55 189.71 290.11 190.34 287.63C199.387 289.615 208.563 290.951 217.8 291.63C223.145 299.232 229.006 306.459 235.34 313.26C233.91 314.66 232.48 315.99 231.06 317.26C214.2 332 200.2 335 194.33 331.63V331.66ZM291.12 292.73C295.47 314.73 291.12 328.35 285.27 331.73C278.48 335.66 264.55 330.24 250.61 318.24C248.8 316.68 246.97 314.99 245.14 313.24C251.36 306.415 257.088 299.157 262.28 291.52C271.567 290.75 280.787 289.316 289.87 287.23C290.34 289.07 290.77 290.91 291.12 292.7V292.73ZM298.74 277.49C297.45 277.92 296.1 278.32 294.74 278.72C291.934 269.865 288.495 261.223 284.45 252.86C288.332 244.601 291.64 236.084 294.35 227.37C296.61 228.02 298.81 228.7 300.92 229.43C321.55 236.53 330.78 246.29 330.78 252.83C330.77 259.79 320.87 270.13 298.74 277.46V277.49Z" fill="white"/>
  </g>
  <defs>
  <clipPath id="clip0">
  <rect width="195.77" height="174" fill="white" transform="translate(142 166)"/>
  </clipPath>
  </defs>
</svg>
